<svg version="1.1" xmlns="http://www.w3.org/2000/svg" width="512" height="512">
<path d="M0 0 C0.93972656 0.54527344 1.87945312 1.09054688 2.84765625 1.65234375 C3.80542969 2.20019531 4.76320313 2.74804688 5.75 3.3125 C6.46285156 3.73402344 7.17570312 4.15554687 7.91015625 4.58984375 C8.20535156 3.9659375 8.50054687 3.34203125 8.8046875 2.69921875 C10.19401556 0.04820408 11.27007648 -0.9830861 13.91015625 -2.41015625 C19.2232416 -2.84167587 22.32430989 -2.09622928 26.89453125 0.58984375 C27.99539063 1.23050781 29.09625 1.87117187 30.23046875 2.53125 C31.07786621 3.04002686 31.07786621 3.04002686 31.94238281 3.55908203 C33.63308871 4.57360169 35.33797254 5.56437215 37.04296875 6.5546875 C56.76434074 18.16225493 56.76434074 18.16225493 60.91015625 24.58984375 C62.14124441 30.90218793 60.22444388 36.76279811 57.91015625 42.58984375 C58.61140625 42.85796875 59.31265625 43.12609375 60.03515625 43.40234375 C68.43015625 46.86984375 68.43015625 46.86984375 70.91015625 50.58984375 C71.38092078 54.80338408 71.28052315 59.04037157 71.28515625 63.27734375 C71.30964844 64.43685547 71.33414062 65.59636719 71.359375 66.79101562 C71.38925666 75.55132258 70.16996429 80.86434885 64.28515625 87.58984375 C61.91015625 89.58984375 61.91015625 89.58984375 59.91015625 89.58984375 C58.10653622 93.42253632 57.46937431 96.3583371 57.91015625 100.58984375 C58.40515625 101.37359375 58.90015625 102.15734375 59.41015625 102.96484375 C61.46525462 106.56126589 61.52369061 109.59834435 60.91015625 113.58984375 C59.15355276 119.84291028 55.9812423 125.63853682 53.03515625 131.40234375 C52.56239258 132.35379272 52.56239258 132.35379272 52.08007812 133.32446289 C49.44850749 138.31271313 46.18819474 142.19916075 40.84765625 144.46484375 C38.91015625 144.58984375 38.91015625 144.58984375 36.34765625 143.96484375 C33.9180637 143.31044713 33.9180637 143.31044713 32.22265625 144.71484375 C29.61868443 148.4348035 28.79719994 152.11411684 28.03515625 156.52734375 C26.7842685 163.10427698 23.60160884 166.97690919 18.91015625 171.58984375 C25.52844012 177.1007376 32.2208253 182.38197486 39.18359375 187.44921875 C45.26272666 192.22194774 48.45195173 196.02961415 49.91015625 203.58984375 C51.63394504 219.44029191 46.25375144 234.48865363 36.99609375 247.22265625 C31.57039553 253.7724035 25.84065911 258.26296683 17.24975586 259.14453125 C16.43760117 259.22944824 15.62544647 259.31436523 14.78868103 259.40185547 C14.16876785 259.4638916 13.54885468 259.52592773 12.91015625 259.58984375 C12.91384342 260.25999669 12.91753059 260.93014963 12.9213295 261.62061024 C13.00985813 277.96433702 13.0759519 294.30798737 13.11740494 310.65189838 C13.13798671 318.55586193 13.16602281 326.45966493 13.21191406 334.36352539 C13.25191682 341.25652482 13.2776209 348.14940793 13.28651023 355.04252023 C13.2917024 358.68881052 13.30381282 362.33476816 13.33307648 365.98095131 C13.36556195 370.06207346 13.36610711 374.14262575 13.36425781 378.22387695 C13.37863892 379.4186264 13.39302002 380.61337585 13.40783691 381.84432983 C13.35102904 393.47511774 9.94451219 404.51715345 1.56616211 412.94116211 C-3.68565968 417.73782073 -9.72876458 421.05953721 -15.90234375 424.52734375 C-17.6457192 425.51962069 -19.38908817 426.51190927 -21.13204956 427.50491333 C-22.93132201 428.52881345 -24.7323712 429.54953176 -26.53369141 430.56982422 C-32.07130259 433.7103201 -37.57882256 436.90300485 -43.08984375 440.08984375 C-45.25637202 441.3400836 -47.42303909 442.59008297 -49.58984375 443.83984375 C-50.66234375 444.45859375 -51.73484375 445.07734375 -52.83984375 445.71484375 C-73.42317708 457.58984375 -94.00651042 469.46484375 -114.58984375 481.33984375 C-116.20125244 482.26953979 -116.20125244 482.26953979 -117.84521484 483.21801758 C-119.99389102 484.4575887 -122.14265288 485.69701131 -124.29150391 486.9362793 C-129.37227468 489.86666153 -134.45215025 492.79856438 -139.5289917 495.73574829 C-141.92914476 497.12422402 -144.32978736 498.51185208 -146.73046875 499.89941406 C-148.42625993 500.88003205 -150.12134151 501.86187684 -151.81640625 502.84375 C-152.8425 503.43671875 -153.86859375 504.0296875 -154.92578125 504.640625 C-155.8286084 505.16309814 -156.73143555 505.68557129 -157.66162109 506.22387695 C-163.0851271 509.27480357 -166.80511912 510.70707586 -173.08984375 509.58984375 C-177.31635028 507.83814569 -181.16886071 505.56130375 -185.08984375 503.21484375 C-186.19851807 502.57216553 -187.30719238 501.9294873 -188.44946289 501.26733398 C-191.67401345 499.39299814 -194.88320674 497.49461641 -198.08984375 495.58984375 C-199.5877194 494.71213689 -201.0863036 493.83563685 -202.5859375 492.9609375 C-205.24911939 491.40386534 -207.90560667 489.8360916 -210.55859375 488.26171875 C-216.1885223 484.92982467 -221.85903545 481.66836702 -227.52734375 478.40234375 C-228.63456787 477.76433838 -229.74179199 477.12633301 -230.88256836 476.46899414 C-233.15321443 475.16094898 -235.42396733 473.85308927 -237.69482422 472.54541016 C-243.16154355 469.39652321 -248.62559262 466.24301111 -254.08984375 463.08984375 C-256.25649686 461.83982025 -258.42316354 460.58982028 -260.58984375 459.33984375 C-267.08984375 455.58984375 -267.08984375 455.58984375 -273.58984375 451.83984375 C-274.66250488 451.22101318 -275.73516602 450.60218262 -276.84033203 449.96459961 C-279.00541446 448.71548857 -281.17045357 447.46630246 -283.33544922 446.21704102 C-289.87106219 442.44596579 -296.40830088 438.67772914 -302.94677734 434.91162109 C-306.17852301 433.04828529 -309.40773501 431.18061691 -312.63671875 429.3125 C-317.05280295 426.75890403 -321.48143243 424.22881755 -325.91796875 421.7109375 C-328.10034194 420.46238206 -330.28263655 419.21368928 -332.46484375 417.96484375 C-333.47562988 417.39693115 -334.48641602 416.82901855 -335.52783203 416.24389648 C-345.97282519 410.23717104 -345.97282519 410.23717104 -347.66828823 404.701087 C-349.00478083 399.00424545 -349.30747075 393.74806388 -349.13891602 387.91430664 C-349.10317734 386.00619714 -349.06784092 384.09808007 -349.03285217 382.18995667 C-349.00020106 380.69266116 -349.00020106 380.69266116 -348.96689034 379.16511726 C-348.86264053 373.83125405 -348.83216946 368.49676759 -348.79101562 363.16210938 C-348.73725496 356.39489502 -348.66084615 349.6308608 -348.48999023 342.86547852 C-348.3532951 337.37517761 -348.30027339 331.88957601 -348.30262566 326.39764214 C-348.28848208 324.31495043 -348.24417865 322.23222507 -348.16836739 320.15086555 C-347.42584679 309.26839531 -347.42584679 309.26839531 -351.72776413 299.76600266 C-355.76666841 296.57227392 -360.19229612 294.46245634 -364.93403435 292.516325 C-371.38434988 289.7442356 -379.16461977 286.00009462 -382.83984375 279.83984375 C-387.02579209 268.95637806 -385.97096185 256.43310788 -382.08984375 245.58984375 C-380.94665642 243.15007678 -379.77802529 240.75157841 -378.55078125 238.35546875 C-378.20123383 237.66495926 -377.8516864 236.97444977 -377.49154663 236.26301575 C-376.3623711 234.03618561 -375.22665713 231.81278322 -374.08984375 229.58984375 C-373.33232087 228.10345254 -372.57483396 226.617043 -371.81738281 225.13061523 C-369.4584096 220.50846134 -367.08771753 215.89237339 -364.71484375 211.27734375 C-364.29709686 210.46424744 -363.87934998 209.65115112 -363.44894409 208.81341553 C-357.78586905 197.79250728 -352.08002177 186.796615 -346.28076172 175.84667969 C-343.90938013 171.35281922 -341.56361178 166.8455519 -339.21484375 162.33984375 C-338.71299561 161.37739746 -338.21114746 160.41495117 -337.6940918 159.42333984 C-336.15905275 156.47899204 -334.62438484 153.53445111 -333.08984375 150.58984375 C-327.03947968 138.97989293 -320.98394224 127.37304709 -314.87841797 115.79199219 C-311.598607 109.56675161 -308.34181468 103.32966614 -305.08984375 97.08984375 C-301.03719756 89.3137003 -296.96893676 81.54615666 -292.87670898 73.79077148 C-290.63279924 69.53443464 -288.40247424 65.27147521 -286.1875 61 C-283.17300723 55.18706692 -280.13934358 49.38448633 -277.08984375 43.58984375 C-276.35169434 42.18412109 -276.35169434 42.18412109 -275.59863281 40.75 C-274.17063888 38.04392777 -272.72678269 35.34697906 -271.27734375 32.65234375 C-270.85783447 31.85449463 -270.4383252 31.05664551 -270.00610352 30.23461914 C-266.11664135 23.0771872 -261.33836412 16.53262334 -254.33984375 12.15234375 C-253.6025 11.67925781 -252.86515625 11.20617188 -252.10546875 10.71875 C-247.89589326 8.3610614 -243.80281334 7.78934846 -239.08984375 8.58984375 C-231.07490559 11.96773955 -223.55664548 16.53207302 -216.08984375 20.96484375 C-213.98635405 22.20297376 -211.8821577 23.43990381 -209.77734375 24.67578125 C-208.68679687 25.31612305 -207.59625 25.95646484 -206.47265625 26.61621094 C-200.70237451 29.98276388 -194.89539596 33.28466705 -189.08984375 36.58984375 C-179.36803633 42.1287038 -169.68088173 47.72360087 -160.02294922 53.37329102 C-152.76772618 57.61601666 -145.49628303 61.82977618 -138.21484375 66.02734375 C-137.13734863 66.64859131 -136.05985352 67.26983887 -134.94970703 67.90991211 C-129.44846348 71.08061393 -123.94545111 74.24822642 -118.44140625 77.4140625 C-116.24075807 78.68076837 -114.04023615 79.94769362 -111.83984375 81.21484375 C-110.77386963 81.82851807 -109.70789551 82.44219238 -108.60961914 83.07446289 C-100.31490324 87.85965655 -92.06608201 92.71981089 -83.85253906 97.64306641 C-83.00401367 98.1488623 -82.15548828 98.6546582 -81.28125 99.17578125 C-80.54076416 99.61970215 -79.80027832 100.06362305 -79.03735352 100.52099609 C-76.97906487 101.72633603 -76.97906487 101.72633603 -74.08984375 102.58984375 C-74.02796875 101.10484375 -74.02796875 101.10484375 -73.96484375 99.58984375 C-73.09250119 93.43359771 -68.66688363 89.06174764 -64.27734375 84.96484375 C-61.61768884 82.07721842 -61.08984375 80.49743525 -61.08984375 76.58984375 C-62.4268441 74.00039629 -62.4268441 74.00039629 -64.08984375 71.58984375 C-66.06579738 66.11797215 -64.24900991 60.34704872 -62.06713867 55.15722656 C-60.860113 52.68395607 -59.58770215 50.25985765 -58.27734375 47.83984375 C-57.63829102 46.60427734 -57.63829102 46.60427734 -56.98632812 45.34375 C-54.04713483 39.82109028 -51.22774484 35.3599418 -45.65234375 32.21484375 C-42.51194449 31.44889271 -40.21277547 31.86358056 -37.08984375 32.58984375 C-34.03057522 28.81674589 -32.86653439 26.11071597 -32.21484375 21.27734375 C-31.08840435 14.50954934 -28.97883876 9.6285567 -23.45507812 5.3125 C-21.55721804 3.9617527 -19.62740776 2.6997719 -17.65234375 1.46484375 C-17.01981689 1.06185059 -16.38729004 0.65885742 -15.7355957 0.24365234 C-10.06072163 -3.05332573 -6.04358298 -2.75819653 0 0 Z " fill="#E2E0F2" transform="translate(413.08984375,2.41015625)"/>
<path d="M0 0 C0.93972656 0.54527344 1.87945312 1.09054688 2.84765625 1.65234375 C3.80542969 2.20019531 4.76320313 2.74804688 5.75 3.3125 C6.46285156 3.73402344 7.17570312 4.15554687 7.91015625 4.58984375 C8.20535156 3.9659375 8.50054687 3.34203125 8.8046875 2.69921875 C10.19401556 0.04820408 11.27007648 -0.9830861 13.91015625 -2.41015625 C19.3874057 -2.8799286 22.5128569 -1.98086684 27.2109375 0.80078125 C27.77338669 1.12897858 28.33583588 1.4571759 28.91532898 1.7953186 C30.69314025 2.83783409 32.45745954 3.9011408 34.22265625 4.96484375 C35.42565409 5.67189864 36.62942447 6.37764085 37.83398438 7.08203125 C46.54949181 12.22917931 46.54949181 12.22917931 48.91015625 14.58984375 C47.83765625 14.81671875 46.76515625 15.04359375 45.66015625 15.27734375 C41.3833154 16.77423805 40.4119133 17.92060008 37.91015625 21.58984375 C37.00411982 22.70274977 36.08725274 23.80691968 35.16015625 24.90234375 C34.04640625 26.23265625 34.04640625 26.23265625 32.91015625 27.58984375 C31.26015625 27.25984375 29.61015625 26.92984375 27.91015625 26.58984375 C27.77738281 25.95175781 27.64460938 25.31367188 27.5078125 24.65625 C27.33121094 23.82996094 27.15460938 23.00367187 26.97265625 22.15234375 C26.79863281 21.32863281 26.62460937 20.50492188 26.4453125 19.65625 C26.10262631 17.61323171 26.10262631 17.61323171 24.91015625 16.58984375 C19.13706692 16.01832238 15.49356697 17.37250881 10.78515625 20.52734375 C9.86440308 21.13642578 9.86440308 21.13642578 8.92504883 21.7578125 C3.99152671 25.19675007 0.66023522 28.69858955 -1.08984375 34.58984375 C-1.44270698 36.90263206 -1.64630761 39.17290023 -1.78125 41.5078125 C-2.33298832 45.23030017 -4.44884173 47.94884173 -7.08984375 50.58984375 C-9.51632541 50.41619723 -11.93242053 50.19837125 -14.3515625 49.94140625 C-19.41211889 51.13976911 -21.77705368 55.57764054 -24.50170898 59.75390625 C-32.77124318 73.24547516 -32.77124318 73.24547516 -33.08984375 88.58984375 C-32.42984375 89.57984375 -31.76984375 90.56984375 -31.08984375 91.58984375 C-30.51213423 96.62416958 -30.37539999 98.54879713 -33.27734375 102.77734375 C-35.04866721 104.54866721 -36.85727463 106.28418597 -38.71484375 107.96484375 C-44.51034319 114.37039576 -44.53950244 121.63226782 -44.40234375 129.83984375 C-44.40556641 130.81953125 -44.40878906 131.79921875 -44.41210938 132.80859375 C-44.39063039 138.96720136 -44.39063039 138.96720136 -42.08984375 144.58984375 C-38.53310758 144.67067866 -35.5216914 144.47958203 -32.08984375 143.58984375 C-30.52888898 145.15079852 -30.92022447 146.6798527 -30.90234375 148.83984375 C-30.88816406 149.608125 -30.87398438 150.37640625 -30.859375 151.16796875 C-31.12346069 153.94310653 -32.04734949 156.01333703 -33.08984375 158.58984375 C-33.77440291 162.39419714 -33.89168947 165.7973302 -33.08984375 169.58984375 C-30.15909 173.73932678 -26.68455956 176.05827181 -21.90234375 177.65234375 C-18.73794106 177.58202369 -16.82710402 177.18657891 -14.08984375 175.58984375 C-12.88981032 173.7738301 -12.88981032 173.7738301 -12.08984375 171.58984375 C-10.83984375 168.90234375 -10.83984375 168.90234375 -9.08984375 166.58984375 C-5.96484375 165.71484375 -5.96484375 165.71484375 -3.08984375 165.58984375 C-1.13530031 167.54438719 -1.12422478 170.92008742 -0.58984375 173.55859375 C-0.28003725 175.57218332 -0.28003725 175.57218332 0.91015625 176.58984375 C2.43534901 176.50046572 3.95697554 176.34447229 5.47265625 176.15234375 C6.29894531 176.05050781 7.12523437 175.94867188 7.9765625 175.84375 C8.61464844 175.75996094 9.25273437 175.67617187 9.91015625 175.58984375 C7.77593482 177.92352512 5.78039174 179.23500319 2.97265625 180.65234375 C-0.6094299 182.80419587 -1.7571261 184.52645393 -3.08984375 188.46484375 C-6.13310644 197.34432018 -13.64570227 201.17869547 -21.4765625 205.62109375 C-24.55155117 206.76099986 -26.02874925 206.71624309 -29.08984375 205.58984375 C-31.38618199 202.14533638 -31.6300086 199.65172092 -32.08984375 195.58984375 C-34.16538023 195.03636735 -35.93350339 194.58984375 -38.08984375 194.58984375 C-38.08984375 195.24984375 -38.08984375 195.90984375 -38.08984375 196.58984375 C-38.74984375 196.58984375 -39.40984375 196.58984375 -40.08984375 196.58984375 C-40.43015625 197.67265625 -40.43015625 197.67265625 -40.77734375 198.77734375 C-42.39863796 202.25154563 -44.08906878 204.20286366 -47.08984375 206.58984375 C-49.83984375 207.33984375 -49.83984375 207.33984375 -53.08984375 206.58984375 C-58.37052705 203.38753749 -62.11727526 200.55407716 -64.08984375 194.58984375 C-64.31689453 192.09448242 -64.31689453 192.09448242 -64.28515625 189.5078125 C-64.27871094 188.57646484 -64.27226562 187.64511719 -64.265625 186.68554688 C-64.24886719 185.72583984 -64.23210937 184.76613281 -64.21484375 183.77734375 C-64.20582031 182.79830078 -64.19679688 181.81925781 -64.1875 180.81054688 C-64.16401557 178.40339314 -64.13117215 175.99674632 -64.08984375 173.58984375 C-66.39984375 173.91984375 -68.70984375 174.24984375 -71.08984375 174.58984375 C-74.22500694 171.18813556 -74.45734555 168.82014837 -74.43041992 164.26074219 C-74.43019333 162.97971619 -74.42996674 161.69869019 -74.42973328 160.37884521 C-74.41441449 158.98563282 -74.39876653 157.59242401 -74.3828125 156.19921875 C-74.37721472 154.77004441 -74.37294548 153.34086429 -74.36994934 151.91168213 C-74.35851476 148.15669765 -74.32905995 144.40206329 -74.2958374 140.6472168 C-74.26510635 136.81303646 -74.25143755 132.97879934 -74.23632812 129.14453125 C-74.20418855 121.62614276 -74.15300945 114.10804238 -74.08984375 106.58984375 C-75.83111564 107.18137268 -77.56869058 107.7837898 -79.3046875 108.390625 C-80.75669556 108.89203003 -80.75669556 108.89203003 -82.23803711 109.40356445 C-98.93965945 116.35101612 -106.58204536 140.33825655 -113.94921875 155.265625 C-116.50494377 160.43613592 -119.13152498 165.56038094 -121.83984375 170.65234375 C-126.5017345 179.42478211 -131.04858526 188.25458112 -135.58984375 197.08984375 C-140.48977333 206.61991769 -145.4025078 216.14127064 -150.4140625 225.61328125 C-154.01128427 232.41883595 -157.55118825 239.25368696 -161.08984375 246.08984375 C-165.50008293 254.608162 -169.93017877 263.11499321 -174.40673828 271.59863281 C-177.6095692 277.6703131 -180.79085088 283.7530416 -183.96484375 289.83984375 C-184.46483887 290.79858398 -184.96483398 291.75732422 -185.47998047 292.74511719 C-188.06763577 297.70817538 -190.65345537 302.67218647 -193.23828125 307.63671875 C-193.75342285 308.62534912 -194.26856445 309.61397949 -194.79931641 310.63256836 C-195.81825391 312.58857311 -196.83617438 314.54510803 -197.85302734 316.50219727 C-200.02383634 320.67198055 -202.20629915 324.8308356 -204.48046875 328.9453125 C-211.54128421 341.73917382 -217.9362179 356.26171676 -214.48828125 371.1953125 C-213.34418816 374.73737847 -212.1686504 377.47163378 -210.08984375 380.58984375 C-213.7224472 379.22511552 -216.99945782 377.59183215 -220.3515625 375.640625 C-221.88586914 374.75117187 -221.88586914 374.75117187 -223.45117188 373.84375 C-224.54880859 373.20308594 -225.64644531 372.56242187 -226.77734375 371.90234375 C-227.93924723 371.22750995 -229.10136046 370.55303719 -230.26367188 369.87890625 C-232.67708415 368.47877286 -235.08958835 367.07709356 -237.50146484 365.67431641 C-243.02251446 362.46493107 -248.55685976 359.27859312 -254.08984375 356.08984375 C-256.25657284 354.83995195 -258.42323931 353.5899516 -260.58984375 352.33984375 C-261.66234375 351.72109375 -262.73484375 351.10234375 -263.83984375 350.46484375 C-299.58984375 329.83984375 -299.58984375 329.83984375 -302.84375 327.96240234 C-304.99717884 326.72016413 -307.15082259 325.47829838 -309.3046875 324.23681641 C-314.3319113 321.33854572 -319.35705377 318.43686303 -324.37426758 315.52130127 C-326.13959586 314.49568747 -327.90562846 313.47129711 -329.671875 312.44726562 C-331.87900695 311.16712909 -334.08483298 309.88473709 -336.2890625 308.59960938 C-341.62079933 305.51047888 -346.98347501 302.60251686 -352.51318359 299.88574219 C-357.5666026 297.3441894 -362.48477761 294.5703748 -367.40234375 291.77734375 C-368.46001953 291.19919922 -369.51769531 290.62105469 -370.60742188 290.02539062 C-377.50003168 286.08986263 -382.37921551 282.37266936 -384.69165039 274.55541992 C-387.24218304 261.96539029 -384.28145805 249.54422145 -378.55078125 238.35546875 C-378.20123383 237.66495926 -377.8516864 236.97444977 -377.49154663 236.26301575 C-376.3623711 234.03618561 -375.22665713 231.81278322 -374.08984375 229.58984375 C-373.33232087 228.10345254 -372.57483396 226.617043 -371.81738281 225.13061523 C-369.4584096 220.50846134 -367.08771753 215.89237339 -364.71484375 211.27734375 C-364.29709686 210.46424744 -363.87934998 209.65115112 -363.44894409 208.81341553 C-357.78586905 197.79250728 -352.08002177 186.796615 -346.28076172 175.84667969 C-343.90938013 171.35281922 -341.56361178 166.8455519 -339.21484375 162.33984375 C-338.71299561 161.37739746 -338.21114746 160.41495117 -337.6940918 159.42333984 C-336.15905275 156.47899204 -334.62438484 153.53445111 -333.08984375 150.58984375 C-327.03947968 138.97989293 -320.98394224 127.37304709 -314.87841797 115.79199219 C-311.598607 109.56675161 -308.34181468 103.32966614 -305.08984375 97.08984375 C-301.03719756 89.3137003 -296.96893676 81.54615666 -292.87670898 73.79077148 C-290.63279924 69.53443464 -288.40247424 65.27147521 -286.1875 61 C-283.17300723 55.18706692 -280.13934358 49.38448633 -277.08984375 43.58984375 C-276.35169434 42.18412109 -276.35169434 42.18412109 -275.59863281 40.75 C-274.17063888 38.04392777 -272.72678269 35.34697906 -271.27734375 32.65234375 C-270.85783447 31.85449463 -270.4383252 31.05664551 -270.00610352 30.23461914 C-266.11664135 23.0771872 -261.33836412 16.53262334 -254.33984375 12.15234375 C-253.6025 11.67925781 -252.86515625 11.20617188 -252.10546875 10.71875 C-247.89589326 8.3610614 -243.80281334 7.78934846 -239.08984375 8.58984375 C-231.07490559 11.96773955 -223.55664548 16.53207302 -216.08984375 20.96484375 C-213.98635405 22.20297376 -211.8821577 23.43990381 -209.77734375 24.67578125 C-208.68679687 25.31612305 -207.59625 25.95646484 -206.47265625 26.61621094 C-200.70237451 29.98276388 -194.89539596 33.28466705 -189.08984375 36.58984375 C-179.36803633 42.1287038 -169.68088173 47.72360087 -160.02294922 53.37329102 C-152.76772618 57.61601666 -145.49628303 61.82977618 -138.21484375 66.02734375 C-137.13734863 66.64859131 -136.05985352 67.26983887 -134.94970703 67.90991211 C-129.44846348 71.08061393 -123.94545111 74.24822642 -118.44140625 77.4140625 C-116.24075807 78.68076837 -114.04023615 79.94769362 -111.83984375 81.21484375 C-110.77386963 81.82851807 -109.70789551 82.44219238 -108.60961914 83.07446289 C-100.31490324 87.85965655 -92.06608201 92.71981089 -83.85253906 97.64306641 C-83.00401367 98.1488623 -82.15548828 98.6546582 -81.28125 99.17578125 C-80.54076416 99.61970215 -79.80027832 100.06362305 -79.03735352 100.52099609 C-76.97906487 101.72633603 -76.97906487 101.72633603 -74.08984375 102.58984375 C-74.02796875 101.10484375 -74.02796875 101.10484375 -73.96484375 99.58984375 C-73.09250119 93.43359771 -68.66688363 89.06174764 -64.27734375 84.96484375 C-61.61768884 82.07721842 -61.08984375 80.49743525 -61.08984375 76.58984375 C-62.4268441 74.00039629 -62.4268441 74.00039629 -64.08984375 71.58984375 C-66.06579738 66.11797215 -64.24900991 60.34704872 -62.06713867 55.15722656 C-60.860113 52.68395607 -59.58770215 50.25985765 -58.27734375 47.83984375 C-57.63829102 46.60427734 -57.63829102 46.60427734 -56.98632812 45.34375 C-54.04713483 39.82109028 -51.22774484 35.3599418 -45.65234375 32.21484375 C-42.51194449 31.44889271 -40.21277547 31.86358056 -37.08984375 32.58984375 C-34.03057522 28.81674589 -32.86653439 26.11071597 -32.21484375 21.27734375 C-31.08840435 14.50954934 -28.97883876 9.6285567 -23.45507812 5.3125 C-21.55721804 3.9617527 -19.62740776 2.6997719 -17.65234375 1.46484375 C-17.01981689 1.06185059 -16.38729004 0.65885742 -15.7355957 0.24365234 C-10.06072163 -3.05332573 -6.04358298 -2.75819653 0 0 Z " fill="#C33289" transform="translate(413.08984375,2.41015625)"/>
<path d="M0 0 C4.38566693 2.76134585 8.11630069 5.67445103 11 10 C11.99360201 16.42615325 10.35617597 22.06748551 8 28 C8.70125 28.268125 9.4025 28.53625 10.125 28.8125 C18.52 32.28 18.52 32.28 21 36 C21.47076453 40.21354033 21.3703669 44.45052782 21.375 48.6875 C21.39949219 49.84701172 21.42398437 51.00652344 21.44921875 52.20117188 C21.47910041 60.96147883 20.25980804 66.2745051 14.375 73 C12 75 12 75 10 75 C8.19637997 78.83269257 7.55921806 81.76849335 8 86 C8.495 86.78375 8.99 87.5675 9.5 88.375 C11.55509837 91.97142214 11.61353436 95.0085006 11 99 C9.24339651 105.25306653 6.07108605 111.04869307 3.125 116.8125 C2.80982422 117.44679932 2.49464844 118.08109863 2.16992188 118.73461914 C-0.46164876 123.72286938 -3.72196151 127.609317 -9.0625 129.875 C-11 130 -11 130 -13.5625 129.375 C-15.99209255 128.72060338 -15.99209255 128.72060338 -17.6875 130.125 C-20.29147182 133.84495975 -21.11295631 137.52427309 -21.875 141.9375 C-23.12588775 148.51443323 -26.30854741 152.38706544 -31 157 C-24.38171613 162.51089385 -17.68933095 167.79213111 -10.7265625 172.859375 C-4.64742959 177.63210399 -1.45820452 181.4397704 0 189 C1.72378879 204.85044816 -3.65640481 219.89880988 -12.9140625 232.6328125 C-18.18876157 239.00027792 -24.20712998 243.4446241 -32.375 245.25 C-38.73751348 245.56648866 -43.1737039 241.69247341 -48 238 C-48.65677734 237.49952148 -49.31355469 236.99904297 -49.99023438 236.48339844 C-53.81567892 233.55264233 -57.61322837 230.58795655 -61.3984375 227.60546875 C-65.49250723 224.38456204 -69.635289 221.23700355 -73.8125 218.125 C-80.07233509 213.45636747 -86.29309342 208.73877417 -92.5 204 C-106.23046212 193.52425761 -120.05014746 183.18178892 -134 173 C-134.36448242 174.22360229 -134.36448242 174.22360229 -134.73632812 175.47192383 C-136.23899086 179.66724439 -138.16867936 183.49959856 -140.21875 187.44921875 C-140.63612427 188.26131302 -141.05349854 189.07340729 -141.48352051 189.91011047 C-142.81835947 192.5046502 -144.15917054 195.096052 -145.5 197.6875 C-146.37016439 199.37806341 -147.23995914 201.06881714 -148.109375 202.75976562 C-156.46985245 218.99985058 -164.98180521 235.15873603 -173.625 251.25 C-174.27623967 252.4644557 -174.92736098 253.67897487 -175.57836914 254.89355469 C-178.20059645 259.78535602 -180.82462223 264.67616867 -183.45703125 269.5625 C-186.94532663 276.04927319 -190.31355778 282.58652265 -193.58422852 289.18530273 C-199.23121532 300.53710451 -205.14107485 311.75669383 -211 323 C-211.49387207 323.95036133 -211.98774414 324.90072266 -212.49658203 325.87988281 C-213.80701989 328.40077457 -215.12145829 330.91953019 -216.4375 333.4375 C-216.83557861 334.20376709 -217.23365723 334.97003418 -217.64379883 335.75952148 C-219.92559431 340.10956903 -222.40550215 344.23890415 -225.0625 348.375 C-227.79264494 352.79907577 -228.2033243 355.64307472 -228.0625 360.8125 C-228.15625 364.078125 -228.15625 364.078125 -229 367 C-233.14373219 370.56960062 -237.82586792 372.42228452 -243 374 C-244.12494873 374.3494165 -245.24989746 374.69883301 -246.40893555 375.05883789 C-256.91304575 378.11028686 -266.80839966 378.51497991 -277.6875 378.3125 C-279.30662899 378.30096612 -280.92577152 378.29119369 -282.54492188 378.28320312 C-284.09636857 378.26980455 -285.64780308 378.25488872 -287.19921875 378.23828125 C-287.91067551 378.23089432 -288.62213226 378.22350739 -289.35514832 378.21589661 C-292.08977646 378.16340937 -294.70425524 378.05978201 -297.38943481 377.51699829 C-300.07312829 376.98551762 -302.6587321 376.73668909 -305.38745117 376.55102539 C-306.4443364 376.4774733 -307.50122162 376.4039212 -308.59013367 376.32814026 C-309.72956924 376.25208054 -310.86900482 376.17602081 -312.04296875 376.09765625 C-313.23940506 376.01503036 -314.43584137 375.93240448 -315.66853333 375.84727478 C-319.5079864 375.58262825 -323.34771928 375.32234567 -327.1875 375.0625 C-332.18109502 374.72157961 -337.17455729 374.37875402 -342.16796875 374.03515625 C-344.02456619 373.90785629 -344.02456619 373.90785629 -345.91867065 373.77798462 C-355.23846992 373.13431821 -364.55334574 372.43689168 -373.86576843 371.69410706 C-382.24163278 371.03296586 -390.61002839 370.52437323 -399 370 C-399 342.61 -399 315.22 -399 287 C-394.59587313 288.46804229 -391.52117022 289.67715882 -387.640625 291.94921875 C-386.11115234 292.83867188 -386.11115234 292.83867188 -384.55078125 293.74609375 C-383.46152344 294.38675781 -382.37226563 295.02742188 -381.25 295.6875 C-380.09279028 296.36256639 -378.93523143 297.03703462 -377.77734375 297.7109375 C-375.37429418 299.11015805 -372.9727608 300.51192935 -370.57226562 301.91552734 C-365.06213188 305.13449365 -359.52992383 308.31519845 -354 311.5 C-351.83323021 312.74982124 -349.66656385 313.9998218 -347.5 315.25 C-346.4275 315.86875 -345.355 316.4875 -344.25 317.125 C-317.16666667 332.75 -290.08333333 348.375 -263 364 C-262.93934846 362.85468337 -262.93934846 362.85468337 -263.65625 361.3203125 C-268.24388638 349.3839623 -266.18732261 337.13535119 -261.1484375 325.6171875 C-256.31129615 315.05098097 -250.81790926 304.79714487 -245.35205078 294.546875 C-242.9176635 289.96118916 -240.52320617 285.35468005 -238.125 280.75 C-237.10939354 278.80207367 -236.09376842 276.85415706 -235.078125 274.90625 C-234.05203993 272.93752262 -233.02599838 270.96877256 -232 269 C-220.64605551 247.21309003 -220.64605551 247.21309003 -215.125 236.75 C-210.42728046 227.84562511 -205.79853827 218.90590221 -201.17016602 209.96533203 C-197.82427651 203.50602627 -194.46125923 197.05663017 -191.0625 190.625 C-186.91514214 182.77230078 -182.82725651 174.88925536 -178.75 167 C-178.10661219 165.7556131 -177.46322026 164.51122834 -176.81982422 163.2668457 C-174.25037122 158.29616518 -171.68151284 153.32518765 -169.12060547 148.35009766 C-165.10693648 140.5527415 -161.06836947 132.7689624 -157 125 C-156.29037109 123.63536621 -156.29037109 123.63536621 -155.56640625 122.24316406 C-142.94430502 98.08738918 -142.94430502 98.08738918 -131 93 C-128.67219907 92.63000217 -126.33890676 92.29166889 -124 92 C-123.99191315 92.79513504 -123.98382629 93.59027008 -123.97549438 94.40950012 C-123.89758609 101.89922897 -123.81030706 109.38876194 -123.71247292 116.87825489 C-123.66250546 120.72877708 -123.6161756 124.57927178 -123.578125 128.42993164 C-123.54127764 132.14533639 -123.49491948 135.86051137 -123.44193649 139.57571983 C-123.42338956 140.99386252 -123.40828267 142.41205446 -123.39665604 143.83027077 C-123.3797995 145.81508633 -123.34962925 147.79977538 -123.31884766 149.78442383 C-123.29886215 151.47986076 -123.29886215 151.47986076 -123.2784729 153.20954895 C-123.19958582 156.209067 -123.19958582 156.209067 -121 159 C-117.41642759 159.25015873 -117.41642759 159.25015873 -114 159 C-113.97812622 159.90709717 -113.97812622 159.90709717 -113.95581055 160.83251953 C-113.88090812 163.59729265 -113.78438927 166.36091357 -113.6875 169.125 C-113.66494141 170.07632813 -113.64238281 171.02765625 -113.61914062 172.0078125 C-113.38360279 178.17462131 -112.85779251 183.02457438 -108.38671875 187.6796875 C-105.54976437 189.67533817 -103.3393085 190.91690404 -99.9375 191.75 C-95.52283216 190.62285076 -93.53388462 187.64813356 -91 184 C-90.67 183.34 -90.34 182.68 -90 182 C-89.34 182 -88.68 182 -88 182 C-88 181.34 -88 180.68 -88 180 C-85.625 179.375 -85.625 179.375 -83 179 C-80.6870518 181.3129482 -80.50419025 182.47904875 -79.875 185.625 C-79.70742188 186.44226563 -79.53984375 187.25953125 -79.3671875 188.1015625 C-79.24601562 188.72804687 -79.12484375 189.35453125 -79 190 C-75.46642662 191.23808916 -74.13407555 191.05726143 -70.625 189.55859375 C-69.40792742 188.86671445 -68.19968628 188.15910617 -67 187.4375 C-66.39671875 187.10169922 -65.7934375 186.76589844 -65.171875 186.41992188 C-59.39643613 183.04882332 -55.35451566 178.91537034 -53.1875 172.4375 C-51.11399052 167.34406592 -47.83332165 165.33454128 -43 163 C-44.1280822 163 -45.2531161 163.13190696 -46.375 163.25 C-49 163 -49 163 -50.75 161.4375 C-52.34673671 158.32386342 -52.66719746 155.46114647 -53 152 C-55.83538907 151.87055003 -55.83538907 151.87055003 -59 153 C-60.47605773 154.92491739 -61.59863349 156.93909667 -62.7890625 159.05078125 C-64.47041502 161.75721644 -66.01616779 162.90835407 -69 164 C-73.58119461 164.31235418 -76.35270956 162.31364489 -79.875 159.625 C-82.51442339 157.16301684 -83.83029222 155.73745745 -84.64453125 152.19921875 C-84.70276003 148.28730323 -84.45409979 145.11040251 -82.96484375 141.46875 C-81.93499121 138.83366173 -81.79116495 136.99597434 -81.875 134.1875 C-81.91625 132.805625 -81.9575 131.42375 -82 130 C-85.3 130.33 -88.6 130.66 -92 131 C-95.93362544 126.14020349 -95.44599854 121.1316556 -95.375 115.1875 C-95.39240234 113.74793945 -95.39240234 113.74793945 -95.41015625 112.27929688 C-95.36820642 102.03654697 -92.50665671 95.61146268 -85.3125 88.25 C-84.549375 87.5075 -83.78625 86.765 -83 86 C-81.12356239 84.12356239 -81.82015013 81.50194299 -81.76953125 79.0078125 C-81.88168663 76.68325672 -81.88168663 76.68325672 -84 74 C-86.30745084 65.35867404 -82.8188769 58.64303568 -78.875 51.125 C-78.16500854 49.76979248 -78.16500854 49.76979248 -77.44067383 48.38720703 C-74.54261964 43.1264547 -71.71235171 38.77736129 -67 35 C-64.3671875 34.625 -64.3671875 34.625 -61.875 35 C-59.33031013 35.20356191 -59.33031013 35.20356191 -57 35 C-53.65326362 31.81651905 -52.90123486 29.19343502 -52.625 24.75 C-52.06912294 18.25386803 -49.46681632 12.96371053 -44.45898438 8.68261719 C-42.70005572 7.34101079 -40.90863671 6.09359136 -39.0625 4.875 C-38.47766846 4.48441406 -37.89283691 4.09382813 -37.2902832 3.69140625 C-33.07550763 1.11176895 -29.89198764 0.47650317 -25 1 C-21.48194063 3.93171614 -21.42099459 7.62165627 -21 12 C-17.79039959 11.68565769 -16.35477272 11.36997726 -14.0859375 9.00390625 C-13.52132813 8.19824219 -12.95671875 7.39257812 -12.375 6.5625 C-8.85985817 1.60789964 -6.36986285 -1.06164381 0 0 Z " fill="#E47BB8" transform="translate(463,17)"/>
<path d="M0 0 C4.38566693 2.76134585 8.11630069 5.67445103 11 10 C11.99360201 16.42615325 10.35617597 22.06748551 8 28 C8.70125 28.268125 9.4025 28.53625 10.125 28.8125 C18.52 32.28 18.52 32.28 21 36 C21.47076453 40.21354033 21.3703669 44.45052782 21.375 48.6875 C21.39949219 49.84701172 21.42398438 51.00652344 21.44921875 52.20117188 C21.47910041 60.96147883 20.25980804 66.2745051 14.375 73 C12 75 12 75 10 75 C8.19637997 78.83269257 7.55921806 81.76849335 8 86 C8.495 86.78375 8.99 87.5675 9.5 88.375 C11.55509837 91.97142214 11.61353436 95.0085006 11 99 C9.24339651 105.25306653 6.07108605 111.04869307 3.125 116.8125 C2.80982422 117.44679932 2.49464844 118.08109863 2.16992188 118.73461914 C-0.46164876 123.72286938 -3.72196151 127.609317 -9.0625 129.875 C-11 130 -11 130 -13.5625 129.375 C-15.99209255 128.72060338 -15.99209255 128.72060338 -17.6875 130.125 C-20.29147182 133.84495975 -21.11295631 137.52427309 -21.875 141.9375 C-23.21341559 148.92008677 -26.36508863 152.80396043 -32 157 C-33.96774472 158.14087327 -35.96973434 159.22450867 -38 160.25 C-39.5159375 161.03117187 -39.5159375 161.03117187 -41.0625 161.828125 C-44.0128106 163.00511061 -45.86614123 163.37803541 -49 163 C-52.42609783 159.94098408 -52.57599326 156.40967012 -53 152 C-55.83538907 151.87055003 -55.83538907 151.87055003 -59 153 C-60.47605773 154.92491739 -61.59863349 156.93909667 -62.7890625 159.05078125 C-64.47041502 161.75721644 -66.01616779 162.90835407 -69 164 C-73.58119461 164.31235418 -76.35270956 162.31364489 -79.875 159.625 C-82.51442339 157.16301684 -83.83029222 155.73745745 -84.64453125 152.19921875 C-84.70276003 148.28730323 -84.45409979 145.11040251 -82.96484375 141.46875 C-81.93499121 138.83366173 -81.79116495 136.99597434 -81.875 134.1875 C-81.936875 132.1146875 -81.936875 132.1146875 -82 130 C-85.3 130.33 -88.6 130.66 -92 131 C-95.93362544 126.14020349 -95.44599854 121.1316556 -95.375 115.1875 C-95.38660156 114.22779297 -95.39820313 113.26808594 -95.41015625 112.27929688 C-95.36820642 102.03654697 -92.50665671 95.61146268 -85.3125 88.25 C-84.549375 87.5075 -83.78625 86.765 -83 86 C-81.12356239 84.12356239 -81.82015013 81.50194299 -81.76953125 79.0078125 C-81.88168663 76.68325672 -81.88168663 76.68325672 -84 74 C-86.30745084 65.35867404 -82.8188769 58.64303568 -78.875 51.125 C-78.16500854 49.76979248 -78.16500854 49.76979248 -77.44067383 48.38720703 C-74.54261964 43.1264547 -71.71235171 38.77736129 -67 35 C-64.3671875 34.625 -64.3671875 34.625 -61.875 35 C-59.33031013 35.20356191 -59.33031013 35.20356191 -57 35 C-53.65326362 31.81651905 -52.90123486 29.19343502 -52.625 24.75 C-52.06912294 18.25386803 -49.46681632 12.96371053 -44.45898438 8.68261719 C-42.70005572 7.34101079 -40.90863671 6.09359136 -39.0625 4.875 C-38.47766846 4.48441406 -37.89283691 4.09382813 -37.2902832 3.69140625 C-33.07550763 1.11176895 -29.89198764 0.47650317 -25 1 C-21.48194063 3.93171614 -21.42099459 7.62165627 -21 12 C-17.79039959 11.68565769 -16.35477272 11.36997726 -14.0859375 9.00390625 C-13.23902344 7.79541016 -13.23902344 7.79541016 -12.375 6.5625 C-8.85985817 1.60789964 -6.36986285 -1.06164381 0 0 Z " fill="#A7B4EA" transform="translate(463,17)"/>
<path d="M0 0 C0.00496522 0.90253179 0.00496522 0.90253179 0.01003075 1.82329655 C0.09133647 16.48000555 0.18345365 31.13661922 0.28752708 45.79318333 C0.33759744 52.88106197 0.38404086 59.96892937 0.421875 67.05688477 C0.45839896 73.89746324 0.50512412 80.73791163 0.55806351 87.57838249 C0.57659238 90.1878231 0.59170589 92.79729027 0.60334396 95.40677071 C0.62023181 99.06240657 0.64927396 102.71775938 0.68115234 106.37329102 C0.68331253 107.45151123 0.68547272 108.52973145 0.68769836 109.640625 C0.74900945 115.1464268 1.16130833 119.79701499 3 125 C-1.10897287 123.7423893 -4.65406986 122.22023808 -8.359375 120.05078125 C-9.37902344 119.4578125 -10.39867187 118.86484375 -11.44921875 118.25390625 C-12.53847656 117.61324219 -13.62773437 116.97257812 -14.75 116.3125 C-15.90720972 115.63743361 -17.06476857 114.96296538 -18.22265625 114.2890625 C-20.62570582 112.88984195 -23.0272392 111.48807065 -25.42773438 110.08447266 C-30.93786812 106.86550635 -36.47007617 103.68480155 -42 100.5 C-44.16676979 99.25017876 -46.33343615 98.0001782 -48.5 96.75 C-49.5725 96.13125 -50.645 95.5125 -51.75 94.875 C-72.33333333 83 -92.91666667 71.125 -113.5 59.25 C-114.5739502 58.6305249 -115.64790039 58.0110498 -116.75439453 57.37280273 C-118.90680362 56.13080408 -121.0588262 54.88813534 -123.21044922 53.64477539 C-128.24522538 50.73639605 -133.28339178 47.83452627 -138.33599854 44.95724487 C-140.11819143 43.94192342 -141.89911912 42.92441725 -143.6796875 41.90625 C-145.9089786 40.63236937 -148.14060369 39.36256089 -150.375 38.09765625 C-166.60704684 28.80449966 -166.60704684 28.80449966 -169 23 C-170.40423039 16.40011719 -170.09093014 9.71872707 -170 3 C-160.69230623 2.74692071 -151.53812769 3.11171338 -142.26171875 3.87890625 C-132.56716395 4.65284148 -122.87076403 5.37237016 -113.16796875 6.03515625 C-111.93630981 6.11987183 -110.70465088 6.2045874 -109.43566895 6.29187012 C-104.39126113 6.63859594 -99.34677394 6.98404961 -94.30200195 7.32543945 C-90.54878595 7.57994694 -86.79586493 7.83848126 -83.04296875 8.09765625 C-81.90353317 8.17371597 -80.7640976 8.2497757 -79.59013367 8.32814026 C-78.00480583 8.4384684 -78.00480583 8.4384684 -76.38745117 8.55102539 C-75.46437668 8.61383194 -74.54130219 8.67663849 -73.59025574 8.74134827 C-71.0081515 8.99918603 -68.54150581 9.48625857 -66 10 C-63.39113532 10.12761803 -60.80888267 10.21118556 -58.19921875 10.23828125 C-57.0681646 10.25038887 -57.0681646 10.25038887 -55.91426086 10.26274109 C-54.31648014 10.27653981 -52.71867046 10.28728071 -51.12084961 10.29516602 C-49.51821999 10.30658236 -47.91562519 10.326866 -46.31323242 10.35668945 C-30.71826414 10.64617398 -17.47655048 8.16015508 -3.37890625 1.171875 C-1 0 -1 0 0 0 Z " fill="#DDDAEF" transform="translate(234,384)"/>
<path d="M0 0 C1.40958984 0.81791016 1.40958984 0.81791016 2.84765625 1.65234375 C3.80542969 2.20019531 4.76320313 2.74804688 5.75 3.3125 C6.46285156 3.73402344 7.17570312 4.15554687 7.91015625 4.58984375 C8.20535156 3.9659375 8.50054687 3.34203125 8.8046875 2.69921875 C10.19401556 0.04820408 11.27007648 -0.9830861 13.91015625 -2.41015625 C19.3874057 -2.8799286 22.5128569 -1.98086684 27.2109375 0.80078125 C28.05461128 1.29307724 28.05461128 1.29307724 28.91532898 1.7953186 C30.69314025 2.83783409 32.45745954 3.9011408 34.22265625 4.96484375 C35.42565409 5.67189864 36.62942447 6.37764085 37.83398438 7.08203125 C46.54949181 12.22917931 46.54949181 12.22917931 48.91015625 14.58984375 C47.83765625 14.81671875 46.76515625 15.04359375 45.66015625 15.27734375 C41.3833154 16.77423805 40.4119133 17.92060008 37.91015625 21.58984375 C37.00411982 22.70274977 36.08725274 23.80691968 35.16015625 24.90234375 C34.41765625 25.78921875 33.67515625 26.67609375 32.91015625 27.58984375 C31.26015625 27.25984375 29.61015625 26.92984375 27.91015625 26.58984375 C27.77738281 25.95175781 27.64460938 25.31367188 27.5078125 24.65625 C27.24291016 23.41681641 27.24291016 23.41681641 26.97265625 22.15234375 C26.71162109 20.91677734 26.71162109 20.91677734 26.4453125 19.65625 C26.10262631 17.61323171 26.10262631 17.61323171 24.91015625 16.58984375 C19.13706692 16.01832238 15.49356697 17.37250881 10.78515625 20.52734375 C10.1713208 20.93339844 9.55748535 21.33945312 8.92504883 21.7578125 C3.99152671 25.19675007 0.66023522 28.69858955 -1.08984375 34.58984375 C-1.44270698 36.90263206 -1.64630761 39.17290023 -1.78125 41.5078125 C-2.33298832 45.23030017 -4.44884173 47.94884173 -7.08984375 50.58984375 C-9.51632541 50.41619723 -11.93242053 50.19837125 -14.3515625 49.94140625 C-19.41211889 51.13976911 -21.77705368 55.57764054 -24.50170898 59.75390625 C-32.77124318 73.24547516 -32.77124318 73.24547516 -33.08984375 88.58984375 C-32.09984375 90.07484375 -32.09984375 90.07484375 -31.08984375 91.58984375 C-30.51213423 96.62416958 -30.37539999 98.54879713 -33.27734375 102.77734375 C-35.04866721 104.54866721 -36.85727463 106.28418597 -38.71484375 107.96484375 C-44.51034319 114.37039576 -44.53950244 121.63226782 -44.40234375 129.83984375 C-44.40556641 130.81953125 -44.40878906 131.79921875 -44.41210938 132.80859375 C-44.39063039 138.96720136 -44.39063039 138.96720136 -42.08984375 144.58984375 C-38.53310758 144.67067866 -35.5216914 144.47958203 -32.08984375 143.58984375 C-30.52888898 145.15079852 -30.92022447 146.6798527 -30.90234375 148.83984375 C-30.88816406 149.608125 -30.87398438 150.37640625 -30.859375 151.16796875 C-31.12346069 153.94310653 -32.04734949 156.01333703 -33.08984375 158.58984375 C-33.77440291 162.39419714 -33.89168947 165.7973302 -33.08984375 169.58984375 C-30.15909 173.73932678 -26.68455956 176.05827181 -21.90234375 177.65234375 C-18.73794106 177.58202369 -16.82710402 177.18657891 -14.08984375 175.58984375 C-12.88981032 173.7738301 -12.88981032 173.7738301 -12.08984375 171.58984375 C-10.83984375 168.90234375 -10.83984375 168.90234375 -9.08984375 166.58984375 C-5.96484375 165.71484375 -5.96484375 165.71484375 -3.08984375 165.58984375 C-1.13530031 167.54438719 -1.12422478 170.92008742 -0.58984375 173.55859375 C-0.28003725 175.57218332 -0.28003725 175.57218332 0.91015625 176.58984375 C2.43534901 176.50046572 3.95697554 176.34447229 5.47265625 176.15234375 C6.29894531 176.05050781 7.12523437 175.94867188 7.9765625 175.84375 C8.61464844 175.75996094 9.25273437 175.67617187 9.91015625 175.58984375 C7.77593482 177.92352512 5.78039174 179.23500319 2.97265625 180.65234375 C-0.6094299 182.80419587 -1.7571261 184.52645393 -3.08984375 188.46484375 C-6.13310644 197.34432018 -13.64570227 201.17869547 -21.4765625 205.62109375 C-24.55155117 206.76099986 -26.02874925 206.71624309 -29.08984375 205.58984375 C-31.38618199 202.14533638 -31.6300086 199.65172092 -32.08984375 195.58984375 C-34.16538023 195.03636735 -35.93350339 194.58984375 -38.08984375 194.58984375 C-38.08984375 195.24984375 -38.08984375 195.90984375 -38.08984375 196.58984375 C-38.74984375 196.58984375 -39.40984375 196.58984375 -40.08984375 196.58984375 C-40.31671875 197.31171875 -40.54359375 198.03359375 -40.77734375 198.77734375 C-42.39863796 202.25154563 -44.08906878 204.20286366 -47.08984375 206.58984375 C-49.83984375 207.33984375 -49.83984375 207.33984375 -53.08984375 206.58984375 C-58.37052705 203.38753749 -62.11727526 200.55407716 -64.08984375 194.58984375 C-64.31689453 192.09448242 -64.31689453 192.09448242 -64.28515625 189.5078125 C-64.27548828 188.11079102 -64.27548828 188.11079102 -64.265625 186.68554688 C-64.24886719 185.72583984 -64.23210937 184.76613281 -64.21484375 183.77734375 C-64.20582031 182.79830078 -64.19679688 181.81925781 -64.1875 180.81054688 C-64.16401557 178.40339314 -64.13117215 175.99674632 -64.08984375 173.58984375 C-66.39984375 173.91984375 -68.70984375 174.24984375 -71.08984375 174.58984375 C-74.26320713 171.15655168 -74.49065842 168.64051486 -74.56982422 164.03637695 C-74.58483475 163.38700668 -74.59984528 162.73763641 -74.61531067 162.06858826 C-74.66071544 159.92591939 -74.68460621 157.78364872 -74.70703125 155.640625 C-74.73151931 154.14331198 -74.75685177 152.64601255 -74.7829895 151.14872742 C-74.83435775 148.00911535 -74.87499711 144.86959138 -74.90820312 141.72973633 C-74.95146117 137.72598614 -75.02184175 133.72326642 -75.10052299 129.72007465 C-75.15816214 126.62562612 -75.20079703 123.53110409 -75.23910904 120.43636131 C-75.25919811 118.96166102 -75.2839154 117.48701565 -75.31353378 116.01247597 C-75.52745874 104.77094507 -75.09763229 95.97895555 -67.08984375 87.58984375 C-65.72859375 86.35234375 -65.72859375 86.35234375 -64.33984375 85.08984375 C-61.66828181 82.1214416 -61.08984375 80.56447843 -61.08984375 76.58984375 C-62.4268441 74.00039629 -62.4268441 74.00039629 -64.08984375 71.58984375 C-66.06579738 66.11797215 -64.24900991 60.34704872 -62.06713867 55.15722656 C-60.860113 52.68395607 -59.58770215 50.25985765 -58.27734375 47.83984375 C-57.85130859 47.01613281 -57.42527344 46.19242188 -56.98632812 45.34375 C-54.04713483 39.82109028 -51.22774484 35.3599418 -45.65234375 32.21484375 C-42.51194449 31.44889271 -40.21277547 31.86358056 -37.08984375 32.58984375 C-34.03057522 28.81674589 -32.86653439 26.11071597 -32.21484375 21.27734375 C-31.08840435 14.50954934 -28.97883876 9.6285567 -23.45507812 5.3125 C-21.55721804 3.9617527 -19.62740776 2.6997719 -17.65234375 1.46484375 C-17.01981689 1.06185059 -16.38729004 0.65885742 -15.7355957 0.24365234 C-10.06072163 -3.05332573 -6.04358298 -2.75819653 0 0 Z " fill="#445483" transform="translate(413.08984375,2.41015625)"/>
<path d="M0 0 C4.40412687 1.46804229 7.47882978 2.67715882 11.359375 4.94921875 C12.37902344 5.5421875 13.39867188 6.13515625 14.44921875 6.74609375 C16.08310547 7.70708984 16.08310547 7.70708984 17.75 8.6875 C18.90720972 9.36256639 20.06476857 10.03703462 21.22265625 10.7109375 C23.62570582 12.11015805 26.0272392 13.51192935 28.42773438 14.91552734 C33.93786812 18.13449365 39.47007617 21.31519845 45 24.5 C47.16676979 25.74982124 49.33343615 26.9998218 51.5 28.25 C53.10875 29.178125 53.10875 29.178125 54.75 30.125 C66.66666667 37 78.58333333 43.875 90.5 50.75 C91.57411133 51.36963623 92.64822266 51.98927246 93.75488281 52.62768555 C95.90542543 53.86847033 98.05581792 55.10951535 100.20605469 56.35083008 C105.26377813 59.27019474 110.32294493 62.18696209 115.38757324 65.09432983 C117.76923502 66.46174766 120.1500302 67.83067039 122.53076172 69.19970703 C124.20326021 70.16064553 125.87700336 71.11941672 127.55078125 72.078125 C135.96236121 76.91664444 135.96236121 76.91664444 139.3984375 79.39453125 C143.80135647 82.11164791 148.00050222 81.6908138 153 81 C159.41487409 79.11130014 163.59436119 74.83429555 168 70 C168.66 69.34 169.32 68.68 170 68 C170 71.96 170 75.92 170 80 C168.01226543 81.10567735 166.00869735 82.18287954 164 83.25 C162.88625 83.85328125 161.7725 84.4565625 160.625 85.078125 C147.88625196 90.8564175 135.06520012 91.56846285 121.3125 91.3125 C119.69337101 91.30096612 118.07422848 91.29119369 116.45507812 91.28320312 C114.90363143 91.26980455 113.35219692 91.25488872 111.80078125 91.23828125 C111.08932449 91.23089432 110.37786774 91.22350739 109.64485168 91.21589661 C106.91022354 91.16340937 104.29574476 91.05978201 101.61056519 90.51699829 C98.92687171 89.98551762 96.3412679 89.73668909 93.61254883 89.55102539 C92.5556636 89.4774733 91.49877838 89.4039212 90.40986633 89.32814026 C89.27043076 89.25208054 88.13099518 89.17602081 86.95703125 89.09765625 C85.76059494 89.01503036 84.56415863 88.93240448 83.33146667 88.84727478 C79.4920136 88.58262825 75.65228072 88.32234567 71.8125 88.0625 C66.81890498 87.72157961 61.82544271 87.37875402 56.83203125 87.03515625 C55.59429962 86.95028961 54.35656799 86.86542297 53.08132935 86.77798462 C43.76153008 86.13431821 34.44665426 85.43689168 25.13423157 84.69410706 C16.75836722 84.03296586 8.38997161 83.52437323 0 83 C0 55.61 0 28.22 0 0 Z " fill="#6178BF" transform="translate(64,304)"/>
<path d="M0 0 C5.84728911 3.22452448 9.12774599 7.88833605 11.08203125 14.19140625 C12.11065274 18.69789735 12.28203683 23.07843637 12.25 27.6875 C12.24581055 28.51757568 12.24162109 29.34765137 12.23730469 30.20288086 C12.04199663 40.9417074 9.47173399 50.78588058 4.9375 60.5 C4.46699219 61.51835938 3.99648438 62.53671875 3.51171875 63.5859375 C-2.55612936 75.77956067 -12.21242427 87.91059886 -25.0625 93.375 C-30.27441782 95.09186705 -34.83679744 95.22676002 -40.125 93.5 C-46.80315332 88.95317221 -50.8671722 83.68146562 -52.625 75.73828125 C-55.73820955 52.69497125 -48.05192137 32.27296827 -34.15625 13.9921875 C-26.2039521 4.37772898 -12.87799723 -5.54367119 0 0 Z " fill="#4D5B92" transform="translate(446.0625,52.5)"/>
<path d="M0 0 C4.80459553 1.56335468 8.68434788 3.41060873 13 6 C12.47731534 8.76276177 11.89130413 11.3260876 11 14 C10.22436255 17.87193213 10.03699809 21.14799235 11 25 C14.12828212 28.53957021 17.92260338 30.67483354 22 33 C23.15444308 33.6848558 24.30807775 34.37107599 25.4609375 35.05859375 C31.77387852 38.77260251 38.22538761 42.24416456 44.6953125 45.67578125 C47 47 47 47 49.11328125 48.68359375 C51.03783193 50.32423264 51.03783193 50.32423264 54.0625 49.75 C57.03130536 49.02940395 57.03130536 49.02940395 60 48 C61.06716704 46.20067421 61.06716704 46.20067421 62 44 C63.25 41.3125 63.25 41.3125 65 39 C68.125 38.125 68.125 38.125 71 38 C72.95454344 39.95454344 72.96561897 43.33024367 73.5 45.96875 C73.8098065 47.98233957 73.8098065 47.98233957 75 49 C76.52519276 48.91062197 78.04681929 48.75462854 79.5625 48.5625 C80.38878906 48.46066406 81.21507812 48.35882813 82.06640625 48.25390625 C82.70449219 48.17011719 83.34257812 48.08632812 84 48 C81.86577857 50.33368137 79.87023549 51.64515944 77.0625 53.0625 C73.48041385 55.21435212 72.33271765 56.93661018 71 60.875 C67.95673731 69.75447643 60.44414148 73.58885172 52.61328125 78.03125 C49.53829258 79.17115611 48.0610945 79.12639934 45 78 C42.70366176 74.55549263 42.45983515 72.06187717 42 68 C39.92446352 67.4465236 38.15634036 67 36 67 C36 67.66 36 68.32 36 69 C35.34 69 34.68 69 34 69 C33.6596875 70.0828125 33.6596875 70.0828125 33.3125 71.1875 C31.69120579 74.66170188 30.00077497 76.61301991 27 79 C24.25 79.75 24.25 79.75 21 79 C15.7193167 75.79769374 11.97256849 72.96423341 10 67 C9.77294922 64.50463867 9.77294922 64.50463867 9.8046875 61.91796875 C9.81435547 60.52094727 9.81435547 60.52094727 9.82421875 59.09570312 C9.84097656 58.13599609 9.85773438 57.17628906 9.875 56.1875 C9.88402344 55.20845703 9.89304687 54.22941406 9.90234375 53.22070312 C9.92582818 50.81354939 9.9586716 48.40690257 10 46 C6.535 46.495 6.535 46.495 3 47 C1.05126503 45.17488721 0.08404359 43.63520005 -0.26815796 40.9732666 C-0.3472857 38.37862376 -0.33665547 35.79864164 -0.29296875 33.203125 C-0.28872391 32.25435486 -0.28447906 31.30558472 -0.28010559 30.32806396 C-0.26333082 27.30175234 -0.22568056 24.2761099 -0.1875 21.25 C-0.17245162 19.19662421 -0.15876348 17.14323797 -0.14648438 15.08984375 C-0.11343117 10.05963852 -0.06165683 5.02993267 0 0 Z " fill="#865D78" transform="translate(339,130)"/>
<path d="M0 0 C4.69732998 2.69694611 7.41139515 5.79956713 9 11 C9.79192369 19.42318831 9.20525271 27.16205411 6 35 C5.50693359 36.22976562 5.50693359 36.22976562 5.00390625 37.484375 C1.04118914 46.3147896 -5.43582516 54.31009473 -14 59 C-17.65288193 60.21762731 -20.15754136 60.39075851 -24 60 C-28.07153483 57.41614136 -30.83647841 54.86681709 -32.52734375 50.19921875 C-35.51281626 36.30813593 -30.33000206 23.59972826 -23 12 C-17.66135322 4.32569526 -9.93640032 -2.528618 0 0 Z " fill="#A6B4E9" transform="translate(438,69)"/>
<path d="M0 0 C0 16.17 0 32.34 0 49 C-10.75 55.0625 -10.75 55.0625 -14.22241211 57.02050781 C-20.5243593 60.58114822 -26.78929964 64.18829307 -32.98828125 67.92578125 C-35 69 -35 69 -37 69 C-37.33083606 62.31195255 -37.55772303 55.62602226 -37.71411133 48.93164062 C-37.77931611 46.65740146 -37.86791268 44.38370388 -37.98071289 42.11132812 C-38.8914966 23.28571742 -38.8914966 23.28571742 -34.45922852 17.9296875 C-31.05439813 15.82894796 -27.73782859 14.41273858 -24 13 C-21.9716416 11.83317872 -19.96590937 10.62587839 -17.98828125 9.375 C-16.09706136 8.24881156 -14.20514188 7.12379705 -12.3125 6 C-11.33861328 5.41605469 -10.36472656 4.83210937 -9.36132812 4.23046875 C-8.43384766 3.68003906 -7.50636719 3.12960938 -6.55078125 2.5625 C-5.72231689 2.06878906 -4.89385254 1.57507813 -4.0402832 1.06640625 C-2 0 -2 0 0 0 Z " fill="#1B63C3" transform="translate(374,241)"/>
<path d="M0 0 C0.22858025 6.72540794 0.38595529 13.44981242 0.49438477 20.17822266 C0.53959016 22.46571274 0.60096912 24.75294355 0.67895508 27.03955078 C0.78840739 30.33170462 0.83922209 33.62041876 0.87890625 36.9140625 C0.92535782 37.93303619 0.97180939 38.95200989 1.01966858 40.00186157 C1.02458447 46.94812482 1.02458447 46.94812482 -1.84405518 49.89317322 C-4.1628386 51.46571429 -6.49174873 52.75555757 -9 54 C-10.61817627 54.96546753 -10.61817627 54.96546753 -12.26904297 55.95043945 C-13.74074951 56.77354614 -13.74074951 56.77354614 -15.2421875 57.61328125 C-16.32757813 58.22107422 -17.41296875 58.82886719 -18.53125 59.45507812 C-19.6346875 60.06802734 -20.738125 60.68097656 -21.875 61.3125 C-23.56496094 62.26092773 -23.56496094 62.26092773 -25.2890625 63.22851562 C-33.60235276 67.86745092 -33.60235276 67.86745092 -37 69 C-37 52.83 -37 36.66 -37 20 C-31.06 16.7 -25.12 13.4 -19 10 C-15.09517053 7.71465905 -11.20902887 5.41030682 -7.33984375 3.06640625 C-2.20969742 0 -2.20969742 0 0 0 Z " fill="#1B63C3" transform="translate(374,310)"/>
<path d="M0 0 C0.22858025 6.72540794 0.38595529 13.44981242 0.49438477 20.17822266 C0.53959016 22.46571274 0.60096912 24.75294355 0.67895508 27.03955078 C0.78840739 30.33170462 0.83922209 33.62041876 0.87890625 36.9140625 C0.92535782 37.93303619 0.97180939 38.95200989 1.01966858 40.00186157 C1.02458387 46.94728367 1.02458387 46.94728367 -1.83389282 49.88424683 C-4.15559588 51.45717943 -6.49216684 52.74861629 -9 54 C-10.67932617 55.01876221 -10.67932617 55.01876221 -12.39257812 56.05810547 C-13.42833984 56.65510254 -14.46410156 57.25209961 -15.53125 57.8671875 C-16.67078125 58.52460938 -17.8103125 59.18203125 -18.984375 59.859375 C-19.8496582 60.3553418 -19.8496582 60.3553418 -20.73242188 60.86132812 C-22.52707566 61.89052736 -24.31836243 62.92541721 -26.109375 63.9609375 C-34.86774554 69 -34.86774554 69 -36 69 C-36.38204474 62.18828387 -36.64362729 55.37934043 -36.82397461 48.55932617 C-36.89916915 46.24317261 -37.00136871 43.92772573 -37.1315918 41.61401367 C-38.1542253 22.97000132 -38.1542253 22.97000132 -34.64547729 18.13253784 C-31.1772885 15.06397264 -27.21353689 13.34352856 -22.90731812 11.74490356 C-20.22911749 10.69893164 -17.88058126 9.23857774 -15.44921875 7.71484375 C-13.86262953 6.78794836 -12.27541359 5.86212471 -10.6875 4.9375 C-9.86572266 4.45345703 -9.04394531 3.96941406 -8.19726562 3.47070312 C-7.41416016 3.01501953 -6.63105469 2.55933594 -5.82421875 2.08984375 C-5.13416748 1.68628662 -4.44411621 1.28272949 -3.7331543 0.86694336 C-2 0 -2 0 0 0 Z " fill="#1961C3" transform="translate(322,340)"/>
<path d="M0 0 C0 16.17 0 32.34 0 49 C-5.32125 52.0009375 -5.32125 52.0009375 -10.75 55.0625 C-18.23479491 59.28566414 -25.70047851 63.53068822 -33.0859375 67.92578125 C-35 69 -35 69 -36 69 C-40.0429146 24.7899802 -40.0429146 24.7899802 -33.80566406 16.40185547 C-28.35946113 11.41473038 -22.0858513 9.03465573 -15.06738281 7.01806641 C-10.94528512 5.64993943 -7.55622608 3.52953529 -3.93896484 1.16088867 C-2 0 -2 0 0 0 Z " fill="#1961C3" transform="translate(322,271)"/>
<path d="M0 0 C3.1496582 1.34521484 3.1496582 1.34521484 6.30078125 3.2109375 C6.86323044 3.53913483 7.42567963 3.86733215 8.00517273 4.20547485 C9.782984 5.24799034 11.54730329 6.31129705 13.3125 7.375 C14.51549784 8.08205489 15.71926822 8.7877971 16.92382812 9.4921875 C25.63933556 14.63933556 25.63933556 14.63933556 28 17 C26.9275 17.226875 25.855 17.45375 24.75 17.6875 C20.47315915 19.1843943 19.50175705 20.33075633 17 24 C16.09396357 25.11290602 15.17709649 26.21707593 14.25 27.3125 C13.5075 28.199375 12.765 29.08625 12 30 C10.35 29.67 8.7 29.34 7 29 C6.92523438 28.37351562 6.85046875 27.74703125 6.7734375 27.1015625 C6.37097063 24.59995469 5.92243057 22.36264055 5 20 C2.15430892 18.57920507 2.15430892 18.57920507 -1 18 C-2.35500919 16.68870078 -3.68671343 15.35308313 -5 14 C-6.21617708 13.33002634 -7.44659219 12.68547608 -8.6875 12.0625 C-12 10 -12 10 -12.9375 7.25 C-12.958125 6.5075 -12.97875 5.765 -13 5 C-8.45122144 0.56216726 -6.59191362 -0.47054598 0 0 Z " fill="#49588C" transform="translate(434,0)"/>
<path d="M0 0 C2.75 0.25 2.75 0.25 5 1 C5.33 3.97 5.66 6.94 6 10 C2.00499382 8.6302836 -0.80009492 6.74277578 -4 4 C-2.3125 1.9375 -2.3125 1.9375 0 0 Z " fill="#4B5A8B" transform="translate(406,168)"/>
<path d="M0 0 C3.3 1.65 6.6 3.3 10 5 C6.00889681 6.9955516 4.30013434 7.19546065 0 7 C-0.38133299 5.0085944 -0.71325582 3.00720923 -1 1 C-0.67 0.67 -0.34 0.34 0 0 Z " fill="#4D5D8F" transform="translate(470,44)"/>
</svg>